<?xml version="1.0" encoding="UTF-8" standalone="no"?>
<svg
   xmlns:dc="http://purl.org/dc/elements/1.1/"
   xmlns:cc="http://creativecommons.org/ns#"
   xmlns:rdf="http://www.w3.org/1999/02/22-rdf-syntax-ns#"
   xmlns:svg="http://www.w3.org/2000/svg"
   xmlns="http://www.w3.org/2000/svg"
   xmlns:xlink="http://www.w3.org/1999/xlink"
   xmlns:sodipodi="http://sodipodi.sourceforge.net/DTD/sodipodi-0.dtd"
   xmlns:inkscape="http://www.inkscape.org/namespaces/inkscape"
   version="1.1"
   width="128"
   height="128"
   viewBox="0 0 128 128"
   style="overflow:visible;enable-background:new 0 0 128 128;"
   xml:space="preserve"
   id="svg2"
   inkscape:version="0.47 r22583"
   sodipodi:docname="kubuntu-logo.svg"
   inkscape:output_extension="org.inkscape.output.svg.inkscape"><metadata
   id="metadata52"><rdf:RDF><cc:Work
       rdf:about=""><dc:format>image/svg+xml</dc:format><dc:type
         rdf:resource="http://purl.org/dc/dcmitype/StillImage" /></cc:Work></rdf:RDF></metadata><defs
   id="defs50"><inkscape:perspective
     sodipodi:type="inkscape:persp3d"
     inkscape:vp_x="0 : 64 : 1"
     inkscape:vp_y="0 : 1000 : 0"
     inkscape:vp_z="128 : 64 : 1"
     inkscape:persp3d-origin="64 : 42.666667 : 1"
     id="perspective54" /><inkscape:perspective
     id="perspective3016"
     inkscape:persp3d-origin="0.5 : 0.33333333 : 1"
     inkscape:vp_z="1 : 0.5 : 1"
     inkscape:vp_y="0 : 1000 : 0"
     inkscape:vp_x="0 : 0.5 : 1"
     sodipodi:type="inkscape:persp3d" /><linearGradient
     id="linearGradient35764"><stop
       id="stop35766"
       offset="0"
       style="stop-color: rgb(7, 167, 255); stop-opacity: 1;" /><stop
       id="stop35768"
       offset="1"
       style="stop-color: rgb(0, 152, 234); stop-opacity: 0.0882353;" /></linearGradient><linearGradient
     id="linearGradient3755"><stop
       style="stop-color: rgb(175, 237, 255); stop-opacity: 1;"
       offset="0"
       id="stop3757" /><stop
       style="stop-color: rgb(155, 232, 255); stop-opacity: 0;"
       offset="1"
       id="stop3759" /></linearGradient><linearGradient
     id="linearGradient3031"><stop
       id="stop3033"
       offset="0"
       style="stop-color: rgb(7, 167, 255); stop-opacity: 1;" /><stop
       id="stop3035"
       offset="1"
       style="stop-color: rgb(0, 152, 234); stop-opacity: 0.0882353;" /></linearGradient><linearGradient
     id="linearGradient3038"><stop
       style="stop-color: rgb(175, 237, 255); stop-opacity: 1;"
       offset="0"
       id="stop3040" /><stop
       style="stop-color: rgb(155, 232, 255); stop-opacity: 0;"
       offset="1"
       id="stop3042" /></linearGradient><linearGradient
     id="linearGradient3045"><stop
       style="stop-color: rgb(175, 237, 255); stop-opacity: 1;"
       offset="0"
       id="stop3047" /><stop
       style="stop-color: rgb(155, 232, 255); stop-opacity: 0;"
       offset="1"
       id="stop3049" /></linearGradient><linearGradient
     inkscape:collect="always"
     id="linearGradient47322"><stop
       style="stop-color: rgb(255, 255, 255); stop-opacity: 1;"
       offset="0"
       id="stop47324" /><stop
       style="stop-color: rgb(255, 255, 255); stop-opacity: 0;"
       offset="1"
       id="stop47326" /></linearGradient><linearGradient
     id="linearGradient49158"><stop
       style="stop-color: rgb(115, 214, 255); stop-opacity: 0.323529;"
       offset="0"
       id="stop49160" /><stop
       style="stop-color: rgb(0, 68, 130); stop-opacity: 0.254902;"
       offset="1"
       id="stop49162" /></linearGradient><linearGradient
     id="linearGradient3095"><stop
       style="stop-color: rgb(115, 214, 255); stop-opacity: 0.323529;"
       offset="0"
       id="stop3097" /><stop
       style="stop-color: rgb(0, 68, 130); stop-opacity: 0.254902;"
       offset="1"
       id="stop3099" /></linearGradient><linearGradient
     id="linearGradient3102"><stop
       style="stop-color: rgb(115, 214, 255); stop-opacity: 0.323529;"
       offset="0"
       id="stop3104" /><stop
       style="stop-color: rgb(0, 68, 130); stop-opacity: 0.254902;"
       offset="1"
       id="stop3106" /></linearGradient><linearGradient
     id="linearGradient50967"><stop
       style="stop-color: rgb(0, 105, 130); stop-opacity: 1;"
       offset="0"
       id="stop50969" /><stop
       style="stop-color: rgb(0, 185, 228); stop-opacity: 0;"
       offset="1"
       id="stop50971" /></linearGradient><linearGradient
     inkscape:collect="always"
     xlink:href="#linearGradient47322"
     id="linearGradient2535"
     gradientUnits="userSpaceOnUse"
     gradientTransform="matrix(0.51397,0,0,0.51397,-35.9191,-410.138)"
     x1="313.75183"
     y1="783.22748"
     x2="391.10159"
     y2="835.03125" /><inkscape:perspective
     id="perspective3020"
     inkscape:persp3d-origin="0.5 : 0.33333333 : 1"
     inkscape:vp_z="1 : 0.5 : 1"
     inkscape:vp_y="0 : 1000 : 0"
     inkscape:vp_x="0 : 0.5 : 1"
     sodipodi:type="inkscape:persp3d" /></defs><sodipodi:namedview
   pagecolor="#ffffff"
   bordercolor="#666666"
   borderopacity="1"
   objecttolerance="10"
   gridtolerance="10"
   guidetolerance="10"
   inkscape:pageopacity="0"
   inkscape:pageshadow="2"
   inkscape:window-width="1280"
   inkscape:window-height="750"
   id="namedview48"
   showgrid="false"
   inkscape:zoom="1.890625"
   inkscape:cx="64"
   inkscape:cy="64"
   inkscape:window-x="0"
   inkscape:window-y="29"
   inkscape:window-maximized="1"
   inkscape:current-layer="svg2" />














<linearGradient
   id="XMLID_3_"
   gradientUnits="userSpaceOnUse"
   x1="75.5039"
   y1="11.96"
   x2="85.5969"
   y2="36.3307">
	<stop
   offset="0"
   style="stop-color:#F99D77"
   id="stop33" />
	<stop
   offset="1"
   style="stop-color:#F7804E"
   id="stop35" />
</linearGradient>

<linearGradient
   id="XMLID_4_"
   gradientUnits="userSpaceOnUse"
   x1="37.6743"
   y1="25.6035"
   x2="37.6743"
   y2="47.5006">
	<stop
   offset="0"
   style="stop-color:#FCB462"
   id="stop40" />
	<stop
   offset="1"
   style="stop-color:#FCAF55"
   id="stop42" />
</linearGradient>


<g
   id="g3647"
   transform="matrix(1.3674445,0,0,1.3674445,-1067.1898,-10.387839)"><path
     id="path2819-8-3-8"
     d="m 872.23977,55.171341 c 0,24.64394 -19.97925,44.625008 -44.62479,44.625008 -24.64456,0 -44.62309,-19.981068 -44.62309,-44.625008 0,-24.644245 19.97853,-44.622169 44.62309,-44.622169 24.64554,0 44.62479,19.977924 44.62479,44.622169 z"
     style="fill:#0079c1" /><g
     style="fill:#ffffff;fill-opacity:1"
     transform="matrix(0.415288,0,0,0.415288,609.13611,80.906538)"
     id="g4835-5-6-3"><path
       sodipodi:nodetypes="ccccccccccccccccccc"
       d="m 490.89173,-23.585335 3.65182,-79.224895 -24.28352,-22.12009 c -0.57715,-0.37695 -1.33691,-0.29883 -1.82178,0.18945 l -11.21875,11.2168 c -0.47168,0.47314 -0.56055,1.20801 -0.21289,1.78076 l 13.13428,21.631353 c -2.32959,3.9165 -4.19531,8.13965 -5.52979,12.594237 l -24.11377,5.01563 c -0.6709,0.13916 -1.1543,0.7334 -1.1543,1.42188 l 0,15.862785 c 0,0.6709 0.45801,1.25195 1.10449,1.4082 l 23.4043,5.7207 c 1.24805,5.15918 3.18262,10.05078 5.73877,14.5459 l -13.54639,20.6582 c -0.37793,0.57715 -0.29883,1.33789 0.18945,1.82422 l 11.21533,11.21680039 c 0.47168,0.4707 1.20801,0.56152 1.7832,0.21582 L 490.89173,-23.585335 z"
       style="fill:#ffffff;fill-opacity:1"
       id="path79-9-8-1" /></g><g
     style="fill:#ffffff;fill-opacity:1"
     transform="matrix(-0.21579109,0.35482154,-0.35482154,-0.21579109,919.22927,-144.75119)"
     id="g4835-5-6-3-7"><path
       sodipodi:nodetypes="ccccccccccccccccccc"
       d="m 492.48953,-21.721918 0.2923,-79.602262 -22.5218,-23.60614 c -0.57715,-0.37695 -1.33691,-0.29883 -1.82178,0.18945 l -11.21875,11.2168 c -0.47168,0.47314 -0.56055,1.20801 -0.21289,1.78076 l 13.13428,21.631353 c -2.32959,3.9165 -4.19531,8.13965 -5.52979,12.594237 l -24.11377,5.01563 c -0.6709,0.13916 -1.1543,0.7334 -1.1543,1.42188 l 0,15.862785 c 0,0.6709 0.45801,1.25195 1.10449,1.4082 l 23.4043,5.7207 c 1.24805,5.15918 3.18262,10.05078 5.73877,14.5459 l -13.54639,20.6582 c -0.37793,0.57715 -0.29883,1.33789 0.18945,1.82422 l 11.21533,11.21680039 c 0.47168,0.4707 1.20801,0.56152 1.7832,0.21582 L 492.48953,-21.721918 z"
       style="fill:#ffffff;fill-opacity:1"
       id="path79-9-8-1-7" /></g><g
     style="fill:#ffffff;fill-opacity:1"
     transform="matrix(-0.20731956,-0.35983709,0.35983709,-0.20731956,958.85963,231.66525)"
     id="g4835-5-6-3-1"><path
       sodipodi:nodetypes="ccccccccccccccccccc"
       d="m 491.63809,-24.019439 1.65581,-78.077921 -23.03387,-22.83296 c -0.57715,-0.37695 -1.33691,-0.29883 -1.82178,0.18945 l -11.21875,11.2168 c -0.47168,0.47314 -0.56055,1.20801 -0.21289,1.78076 l 13.13428,21.631353 c -2.32959,3.9165 -4.19531,8.13965 -5.52979,12.594237 l -24.11377,5.01563 c -0.6709,0.13916 -1.1543,0.7334 -1.1543,1.42188 l 0,15.862785 c 0,0.6709 0.45801,1.25195 1.10449,1.4082 l 23.4043,5.7207 c 1.24805,5.15918 3.18262,10.05078 5.73877,14.5459 l -13.54639,20.6582 c -0.37793,0.57715 -0.29883,1.33789 0.18945,1.82422 l 11.21533,11.21680039 c 0.47168,0.4707 1.20801,0.56152 1.7832,0.21582 L 491.63809,-24.019439 z"
       style="fill:#ffffff;fill-opacity:1"
       id="path79-9-8-1-5" /></g><path
     id="path2819-8-3-8-5"
     d="m 849.15577,55.172072 c 0,11.895612 -9.64397,21.540458 -21.54035,21.540458 -11.89591,0 -21.53953,-9.644846 -21.53953,-21.540458 0,-11.895759 9.64362,-21.539088 21.53953,-21.539088 11.89638,0 21.54035,9.643329 21.54035,21.539088 z"
     style="fill:#0079c1;fill-opacity:1" /></g></svg>