#define close_width 9
#define close_height 9
static unsigned char close_bits[] = {
   0x00, 0x00, 0x44, 0x00, 0xee, 0x00, 0x7c, 0x00, 0x38, 0x00, 0x7c, 0x00,
   0xee, 0x00, 0x44, 0x00, 0x00, 0x00 };
