#define iconify_width 9
#define iconify_height 9
static unsigned char iconify_bits[] = {
   0x00, 0x00, 0x00, 0x00, 0xff, 0x00, 0x7e, 0x00, 0x3c, 0x00, 0x18, 0x00,
   0x00, 0x00, 0x00, 0x00, 0x00, 0x00 };
