#define bullet_width 9
#define bullet_height 9
static unsigned char bullet_bits[] = {
   0x00, 0x00, 0x08, 0x00, 0x18, 0x00, 0x38, 0x00, 0x38, 0x00, 0x18, 0x00,
   0x08, 0x00, 0x00, 0x00, 0x00, 0x00 };
